<svg xmlns="http://www.w3.org/2000/svg" viewBox="0 0 60 19" width="600" height="190">
  <path fill="#1a1a1a" fill-rule="evenodd" d="M6.493 13.91h.212L10.189 0h2.903v18.297h-2.164l.053-14.338h-.159l-3.59 14.338H5.86L2.27 3.96h-.158l.052 14.338H0V0h3.01l3.483 13.91Zm9.634 4.387L22.673 0h2.64l6.44 18.297h-2.639l-1.69-5.108h-6.968l-1.69 5.108h-2.639Zm7.76-15.515-2.718 8.24h5.542l-2.718-8.24h-.105ZM53.56 0h-2.64l-6.546 18.297h2.64l1.689-5.108h6.968l1.69 5.108H60L53.56 0Zm-4.145 11.021 2.718-8.239h.106l2.718 8.24h-5.542ZM38.223 8.588 42.763 0h2.64l-6.046 10.726v7.571H36.77v-7.57L30.937 0h2.851l4.224 8.588h.21Z"/>
</svg>
